# Blender v3.0.1 OBJ File: ''
# www.blender.org
mtllib pyramid.mtl
o Cube
v 0.000000 1.000000 0.000000
v 1.000000 -1.000000 -1.000000
v 1.000000 -1.000000 1.000000
v -1.000000 -1.000000 -1.000000
v -1.000000 -1.000000 1.000000
vt 1.000000 0.233333
vt 0.500000 1.233333
vt 0.000000 0.233333
vt 1.000000 0.233333
vt 0.000000 1.000000
vt 1.000000 1.000000
vt 1.000000 0.000000
vt 0.000000 0.000000
vt 1.000000 0.233333
vt 0.000000 0.233333
vt 0.000000 0.233333
vn 0.0000 0.4472 0.8944
vn -0.8944 0.4472 0.0000
vn 0.0000 -1.0000 0.0000
vn 0.8944 0.4472 0.0000
vn 0.0000 0.4472 -0.8944
usemtl Material
s off
f 3/1/1 1/2/1 5/3/1
f 5/3/2 1/2/2 4/4/2
f 4/5/3 2/6/3 3/7/3 5/8/3
f 2/9/4 1/2/4 3/10/4
f 4/11/5 1/2/5 2/9/5
